<?xml version="1.0" encoding="UTF-8"?>
<svg version="1.1" xmlns="http://www.w3.org/2000/svg" width="50" height="50">
<path d="M0 0 C4.54772236 4.75443702 7.01797825 8.62290653 7.375 15.1875 C7.19317152 20.633263 6.07740996 25.44733681 3 30 C-2.18199372 34.21746204 -7.99256225 35.79641157 -14.609375 35.421875 C-21.18958982 34.26066062 -25.09570376 31.35033188 -29 26 C-29.99 25.67 -30.98 25.34 -32 25 C-31.93957111 22.45594362 -31.85240972 19.91743269 -31.75 17.375 C-31.72873047 16.30572266 -31.72873047 16.30572266 -31.70703125 15.21484375 C-31.40349206 8.59768932 -28.94108334 4.89794815 -24.1875 0.25 C-16.37638865 -5.26372566 -7.95267846 -5.12505945 0 0 Z " fill="#CDDFF0" transform="translate(37,9)"/>
<path d="M0 0 C3.0625 0.4375 3.0625 0.4375 5.375 2 C7.63081266 5.25839606 8.0625 7.48225779 8.0625 11.4375 C6.125 14.375 6.125 14.375 4.0625 16.4375 C5.5165625 17.118125 5.5165625 17.118125 7 17.8125 C10.0625 19.4375 10.0625 19.4375 11.0625 21.4375 C11.10272391 23.7704866 11.10570247 26.10456666 11.0625 28.4375 C6.25865808 30.99954902 1.36606761 31.00573939 -3.9375 30.4375 C-6.4840217 29.65638607 -8.56222631 28.67677323 -10.9375 27.4375 C-10.8125 24.1875 -10.8125 24.1875 -9.9375 20.4375 C-6.875 18 -6.875 18 -3.9375 16.4375 C-4.453125 15.963125 -4.96875 15.48875 -5.5 15 C-7.40505762 11.60402773 -6.97546021 9.33917276 -6.5546875 5.55859375 C-5.45246592 1.77057909 -3.84821985 0.57313913 0 0 Z " fill="#7899C0" transform="translate(23.9375,13.5625)"/>
<path d="M0 0 C3.0625 0.4375 3.0625 0.4375 5.375 2 C7.6437451 5.27707626 8.0625 7.45487033 8.0625 11.4375 C6.125 14.8125 6.125 14.8125 4.0625 17.4375 C4.0625 17.7675 4.0625 18.0975 4.0625 18.4375 C0.4325 18.7675 -3.1975 19.0975 -6.9375 19.4375 C-5.9475 18.4475 -4.9575 17.4575 -3.9375 16.4375 C-4.453125 15.963125 -4.96875 15.48875 -5.5 15 C-7.40505762 11.60402773 -6.97546021 9.33917276 -6.5546875 5.55859375 C-5.45246592 1.77057909 -3.84821985 0.57313913 0 0 Z " fill="#BF8C6B" transform="translate(23.9375,13.5625)"/>
<path d="M0 0 C0.66 2.97 1.32 5.94 2 9 C5.98196457 10.05404945 8.98195309 9.84098656 13 9 C10.00815814 11.99184186 7.3098742 12.17435017 3.25 12.25 C-1.56745164 12.22174515 -4.75465701 11.21496156 -9 9 C-8.67 6.69 -8.34 4.38 -8 2 C-2.25 0 -2.25 0 0 0 Z " fill="#6E86A8" transform="translate(22,32)"/>
<path d="M0 0 C3.125 0.375 3.125 0.375 5.5625 2.0625 C7.125 4.375 7.125 4.375 6.875 7.125 C6.6275 7.8675 6.38 8.61 6.125 9.375 C5.795 8.385 5.465 7.395 5.125 6.375 C2.485 6.045 -0.155 5.715 -2.875 5.375 C-3.535 6.695 -4.195 8.015 -4.875 9.375 C-5.535 9.045 -6.195 8.715 -6.875 8.375 C-4.50492126 0.58759843 -4.50492126 0.58759843 0 0 Z " fill="#633433" transform="translate(23.875,13.625)"/>
<path d="M0 0 C1.32 0.33 2.64 0.66 4 1 C3.67 3.97 3.34 6.94 3 10 C2.34 9.67 1.68 9.34 1 9 C0.5859375 6.93359375 0.5859375 6.93359375 0.375 4.4375 C0.30023437 3.61121094 0.22546875 2.78492188 0.1484375 1.93359375 C0.09945313 1.29550781 0.05046875 0.65742187 0 0 Z " fill="#EFF2EB" transform="translate(22,32)"/>
<path d="M0 0 C1.98 0 3.96 0 6 0 C6 1.32 6 2.64 6 4 C4.68 4 3.36 4 2 4 C2 3.34 2 2.68 2 2 C1.34 2 0.68 2 0 2 C0 1.34 0 0.68 0 0 Z " fill="#F4BA14" transform="translate(37,5)"/>
<path d="M0 0 C1.32 0.33 2.64 0.66 4 1 C3.67 2.32 3.34 3.64 3 5 C2.01 5 1.02 5 0 5 C0 3.35 0 1.7 0 0 Z " fill="#F8D15C" transform="translate(5,29)"/>
<path d="M0 0 C0.99 0.33 1.98 0.66 3 1 C2.67 1.66 2.34 2.32 2 3 C1.34 3 0.68 3 0 3 C0 2.01 0 1.02 0 0 Z " fill="#79A0CF" transform="translate(11,42)"/>
<path d="M0 0 C0.99 0.33 1.98 0.66 3 1 C2.67 1.66 2.34 2.32 2 3 C1.34 3 0.68 3 0 3 C0 2.01 0 1.02 0 0 Z " fill="#72A1C9" transform="translate(42,10)"/>
</svg>
